<?xml version="1.0" standalone="no"?>
<!DOCTYPE svg PUBLIC "-//W3C//DTD SVG 20010904//EN"
 "http://www.w3.org/TR/2001/REC-SVG-20010904/DTD/svg10.dtd">
<svg version="1.0" xmlns="http://www.w3.org/2000/svg"
 width="732.000000pt" height="900.000000pt" viewBox="0 0 732.000000 900.000000"
 preserveAspectRatio="xMidYMid meet">

<g transform="translate(0.000000,900.000000) scale(0.100000,-0.100000)"
fill="#000000" stroke="none">
<path d="M5345 8993 c-147 -19 -348 -78 -500 -146 -606 -271 -1044 -802 -1187
-1440 -19 -85 -23 -131 -23 -280 0 -147 3 -179 15 -187 24 -15 220 -11 311 6
302 57 631 232 873 463 310 297 528 705 601 1126 20 112 29 332 18 405 -8 54
-9 55 -43 56 -19 1 -48 0 -65 -3z"/>
<path d="M5190 6824 c-275 -25 -490 -84 -920 -252 -256 -100 -373 -137 -476
-152 -145 -21 -276 10 -632 151 -491 195 -672 237 -986 226 -516 -18 -987
-220 -1389 -597 -226 -211 -449 -550 -575 -872 -86 -222 -147 -465 -184 -741
-29 -214 -31 -678 -5 -917 71 -644 253 -1277 536 -1865 137 -284 272 -505 502
-823 437 -601 723 -856 1064 -948 56 -15 103 -19 230 -18 226 0 315 23 688
178 340 141 502 177 797 177 280 0 438 -37 780 -181 234 -99 347 -134 491
-156 298 -44 563 21 816 199 174 123 408 378 633 692 308 428 495 765 655
1175 56 145 109 300 104 303 -2 1 -47 23 -99 49 -208 103 -391 240 -570 425
-286 295 -455 640 -515 1048 -23 155 -23 438 0 585 83 548 375 1013 848 1352
53 38 97 73 97 76 0 4 -24 38 -53 77 -69 93 -243 272 -337 348 -298 240 -687
400 -1085 446 -105 12 -350 21 -415 15z"/>
</g>
</svg>
