<svg xmlns="http://www.w3.org/2000/svg" viewBox="0 0 24 24" width="100%" height="100%">
  <defs>
    <linearGradient id="grad" x1="0%" y1="0%" x2="100%" y2="100%">
      <stop offset="0%" style="stop-color:#fd79a8;stop-opacity:1" />
      <stop offset="100%" style="stop-color:#e84393;stop-opacity:1" />
    </linearGradient>
  </defs>
  <rect width="24" height="24" fill="url(#grad)" rx="4" />
  <path d="M12 2C6.48 2 2 6.48 2 12s4.48 10 10 10 10-4.48 10-10S17.52 2 12 2zm0 18c-4.41 0-8-3.59-8-8s3.59-8 8-8 8 3.59 8 8-3.59 8-8 8zm0-12.5c-2.47 0-4.5 2.03-4.5 4.5s2.03 4.5 4.5 4.5 4.5-2.03 4.5-4.5-2.03-4.5-4.5-4.5z" fill="white"/>
</svg>